<svg width="600" height="349.99999999999994" xmlns="http://www.w3.org/2000/svg" data-name="Livello 1" fill="#000000">
 <title>magnuseye</title>

 <g>
  <title>Layer 1</title>
  <line stroke-width="10" stroke="#153311" id="svg_28" y2="99.94722" x2="388.05206" y1="68.20589" x1="427.15568" fill="none"/>
  <ellipse stroke-width="10" stroke="#153311" ry="9.89673" rx="9.96981" id="svg_26" cy="19.23143" cx="102.52923" fill="none"/>
  <line stroke-width="10" stroke="#153311" id="svg_25" y2="25.491" x2="111.05264" y1="83.94836" x1="185.43879" fill="none"/>
  <line stroke-width="10" stroke="#153311" id="svg_23" y2="44.464" x2="54.74647" y1="44.464" x1="108.46979" fill="none"/>
  <line stroke-width="10" stroke="#153311" id="svg_22" y2="42.92565" x2="105.37037" y1="101.38301" x1="179.75651" fill="none"/>
  <path stroke-width="10" stroke="#153311" id="svg_21" d="m86.75295,58.82195l-57.85589,0" opacity="undefined" fill="none"/>
  <line stroke-width="10" stroke="#153311" id="svg_19" y2="57.74871" x2="83.60207" y1="84.41347" x1="117.69572" fill="none"/>
  <line stroke-width="10" stroke="#153311" id="svg_18" y2="79.3333" x2="115.18521" y1="121.89436" x1="115.70178" fill="none"/>
  <line stroke-width="10" stroke="#ffffff" id="svg_47" y2="68.49644" x2="81.50522" y1="92.0845" x1="62.90869" fill="none"/>
  <line stroke-width="10" stroke="#ffffff" id="svg_46" y2="76.16747" x2="70.06833" y1="95.14047" x1="94.34714" fill="none"/>
  <line stroke-width="10" stroke="#ffffff" id="svg_45" y2="91.05893" x2="91.90897" y1="133.61998" x1="92.42554" fill="none"/>
  <line stroke-width="10" stroke="#ffffff" id="svg_53" y2="132.15003" x2="543.44299" y1="132.66282" x1="440.64548" fill="none"/>
  <ellipse stroke-width="10" stroke="#ffffff" ry="9.89673" rx="9.96981" id="svg_33" cy="20.257" cx="393.37929" fill="none"/>
  <line stroke-width="10" stroke="#ffffff" id="svg_24" y2="77.89751" x2="324.21238" y1="28.20876" x1="385.52852" fill="none"/>
  <line stroke-width="10" stroke="#ffffff" id="svg_12" y2="80.46143" x2="343.84206" y1="48.72011" x1="382.94568" fill="none"/>
  <line stroke="#ffffff" stroke-width="20" id="svg_48" y2="175.09568" x2="14.99143" y1="175.09568" x1="53.21764" fill="none"/>
  <line stroke-width="10" stroke="#ffffff" id="svg_15" y2="114.71538" x2="563.07267" y1="115.22817" x1="460.27515" fill="none"/>
  <line stroke-width="10" stroke="#153311" fill="none" id="svg_17" y2="253.67979" x2="68.71476" y1="253.16701" x1="150.33289"/>
  <line stroke-width="10" stroke="#153311" fill="none" id="svg_34" y2="268.52979" x2="96.60957" y1="268.01701" x1="178.22769"/>
  <ellipse stroke-width="10" stroke="#153311" ry="9.89673" rx="9.96981" id="svg_44" cy="253.57363" cx="61.22451" fill="none"/>
  <path stroke="#32792a" fill="#32792a" id="svg_2" d="m285.34049,59.13954a262.79658,189.06979 0 0 0 -242.58146,116.35064a262.79658,189.06979 0 0 0 485.16292,0a262.79658,189.06979 0 0 0 -242.58146,-116.35064zm0,187.32453a101.07561,72.71915 0 1 1 101.07561,-72.71915a101.07561,72.71915 0 0 1 -101.07561,72.71915z"/>
  <line stroke-width="10" stroke="#153311" id="svg_13" y2="77.80848" x2="485.58709" y1="49.60537" x1="453.55973" fill="none"/>
  <line stroke-width="10" stroke="#153311" id="svg_14" y2="76.78292" x2="516.58133" y1="76.78291" x1="482.48767" fill="none"/>
  <ellipse stroke-width="10" stroke="#153311" ry="9.89673" rx="9.96981" id="svg_32" cy="76.21236" cx="527.6876" fill="none"/>
  <ellipse stroke-width="10" stroke="#163311" ry="9.89673" rx="9.96981" id="svg_35" cy="285.97183" cx="424.5168" fill="none"/>
  <line stroke-width="10" stroke="#163311" fill="none" id="svg_36" y2="276.24229" x2="460.32661" y1="276.24229" x1="420.55068"/>
  <path stroke-width="10" stroke="#163311" id="svg_38" d="m507.40316,228.17081l-63.9264,47.82837" opacity="undefined" fill="none"/>
  <path stroke-width="10" stroke="#163311" id="svg_39" d="m520.31742,229.19637l-62.74453,47.8375" opacity="undefined" fill="none"/>
  <line stroke-width="10" stroke="#163311" fill="none" id="svg_40" y2="229.57897" x2="554.29099" y1="229.57897" x1="504.18363"/>
  <line stroke-width="10" stroke="#163311" fill="none" id="svg_41" y2="256.24373" x2="536.21102" y1="256.24373" x1="486.10367"/>
  <ellipse stroke-width="10" stroke="#163311" ry="9.89673" rx="9.96981" id="svg_42" cy="254.97684" cx="546.149" fill="none"/>
  <ellipse stroke-width="10" stroke="#163311" ry="9.89673" rx="9.96981" id="svg_43" cy="228.31208" cx="564.74553" fill="none"/>
  <line stroke="#ffffff" id="svg_50" y2="152.53319" x2="16.54114" y1="198.17095" x1="16.54114" stroke-width="20" fill="none"/>
  <line stroke="#000000" stroke-width="20" id="svg_54" y2="163.01962" x2="353.65689" y1="131.2783" x1="392.76051" fill="none"/>
  <line stroke-width="10" stroke="#000000" id="svg_58" y2="254.19259" x2="316.15199" y1="235.73237" x1="294.97261" fill="none"/>
  <line stroke-width="10" stroke="#000000" id="svg_61" y2="270.08889" x2="311.50285" y1="232.14287" x1="268.11095" fill="none"/>
  <circle stroke="#ffffff" stroke-width="10" fill="none" id="svg_1" r="35.07991" cy="173.83116" cx="295.48918"/>
  <line stroke-width="10" stroke="#ffffff" fill="none" id="svg_6" y2="49.59184" x2="503.15051" y1="49.59185" x1="380.20674"/>
  <ellipse stroke-width="10" stroke="#ffffff" ry="9.89673" rx="9.96981" id="svg_52" cy="49.48567" cx="511.67392" fill="none"/>
  <path stroke="#000000" id="svg_55" d="m386.92214,133.43876l25.31197,0" opacity="undefined" stroke-width="20" fill="none"/>
  <line stroke-width="10" stroke="#000000" id="svg_57" y2="156.12268" x2="413.26724" y1="123.30451" x1="413.26724" fill="none"/>
  <line stroke-width="10" stroke="#000000" id="svg_59" y2="253.16702" x2="352.8285" y1="253.16701" x1="313.05256" fill="none"/>
  <ellipse stroke-width="10" stroke="#000000" ry="9.89673" rx="9.96981" id="svg_60" cy="252.03528" cx="358.25249" fill="none"/>
  <path stroke-width="10" stroke="#000000" id="svg_62" d="m307.88687,269.06331l32.02737,0.00001" opacity="undefined" fill="none"/>
  <line stroke-width="10" stroke="#000000" fill="none" id="svg_63" y2="145.52387" x2="154.44457" y1="143.94405" x1="224.23866"/>
  <line stroke="#000000" stroke-width="10" fill="none" id="svg_64" y2="128.94911" x2="172.74133" y1="128.56055" x1="230.86302"/>
  <ellipse stroke-width="10" stroke="#000000" ry="9.89673" rx="9.96981" id="svg_65" cy="144.81579" cx="147.49177" fill="none"/>
  <line stroke-width="10" stroke="#000000" id="svg_66" y2="133.27816" x2="356.23975" y1="110.25416" x1="381.91254" fill="none"/>
  <line stroke-width="10" stroke="#000000" id="svg_67" y2="121.48413" x2="340.74263" y1="95.38343" x1="372.61427" fill="none"/>
  <ellipse stroke-width="10" stroke="#000000" ry="9.89673" rx="9.96981" id="svg_68" cy="88.45724" cx="378.39874" fill="none"/>
  <line stroke-width="10" stroke="#153311" fill="none" id="svg_29" y2="69.29268" x2="449.68437" y1="69.29268" x1="424.3724"/>
  <path stroke-width="10" stroke="#153311" id="svg_30" d="m446.15482,68.05206l33.06051,30.76703" opacity="undefined" fill="none"/>
  <line stroke-width="10" stroke="#153311" id="svg_31" y2="97.36342" x2="548.13425" y1="97.36341" x1="475.81439" fill="none"/>
 </g>
</svg>