<svg width="600" height="350" xmlns="http://www.w3.org/2000/svg" fill="#000000" data-name="Livello 1">
 <title>magnuseye</title>

 <g>
  <title>Layer 1</title>
  <line fill="none" x1="427.15568" y1="68.20589" x2="388.05206" y2="99.94722" id="svg_28" stroke="#7f0000" stroke-width="10"/>
  <ellipse fill="none" cx="102.52923" cy="19.23143" id="svg_26" rx="9.96981" ry="9.89673" stroke="#7f0000" stroke-width="10"/>
  <line fill="none" x1="185.43879" y1="83.94836" x2="111.05264" y2="25.491" id="svg_25" stroke="#7f0000" stroke-width="10"/>
  <line fill="none" x1="108.46979" y1="44.064" x2="54.74647" y2="44.064" id="svg_23" stroke="#7f0000" stroke-width="10"/>
  <line fill="none" x1="179.75651" y1="101.38301" x2="105.37037" y2="42.92565" id="svg_22" stroke="#7f0000" stroke-width="10"/>
  <path fill="none" opacity="undefined" d="m86.75295,58.82195l-57.85589,0" id="svg_21" stroke="#7f0000" stroke-width="10"/>
  <line fill="none" x1="117.69572" y1="84.41347" x2="83.60207" y2="57.74871" id="svg_19" stroke="#7f0000" stroke-width="10"/>
  <line fill="none" x1="115.70178" y1="121.89436" x2="115.18521" y2="79.3333" id="svg_18" stroke="#7f0000" stroke-width="10"/>
  <line fill="none" x1="62.90869" y1="92.0845" x2="81.50522" y2="68.49644" id="svg_47" stroke="#ffffff" stroke-width="10"/>
  <line fill="none" x1="94.34714" y1="95.14047" x2="70.06833" y2="76.16747" id="svg_46" stroke="#ffffff" stroke-width="10"/>
  <line fill="none" x1="92.42554" y1="133.61998" x2="91.90897" y2="91.05893" id="svg_45" stroke="#ffffff" stroke-width="10"/>
  <line fill="none" x1="440.64548" y1="132.66282" x2="543.44299" y2="132.15003" id="svg_53" stroke="#ffffff" stroke-width="10"/>
  <ellipse fill="none" cx="393.37929" cy="20.257" id="svg_33" rx="9.96981" ry="9.89673" stroke="#ffffff" stroke-width="10"/>
  <line fill="none" x1="385.52852" y1="28.20876" x2="324.21238" y2="77.89751" id="svg_24" stroke="#ffffff" stroke-width="10"/>
  <line fill="none" x1="382.94568" y1="48.72011" x2="343.84206" y2="80.46143" id="svg_12" stroke="#ffffff" stroke-width="10"/>
  <line fill="none" x1="53.21764" y1="175.09568" x2="14.99143" y2="175.09568" id="svg_48" stroke-width="20" stroke="#ffffff"/>
  <line fill="none" x1="460.27515" y1="115.22817" x2="563.07267" y2="114.71538" id="svg_15" stroke="#ffffff" stroke-width="10"/>
  <line x1="150.33289" y1="253.16701" x2="68.71476" y2="253.67979" id="svg_17" fill="none" stroke="#7f0000" stroke-width="10"/>
  <line x1="178.22769" y1="268.01701" x2="96.60957" y2="268.52979" id="svg_34" fill="none" stroke="#7f0000" stroke-width="10"/>
  <ellipse fill="none" cx="61.22451" cy="253.57363" id="svg_44" rx="9.96981" ry="9.89673" stroke="#7f0000" stroke-width="10"/>
  <path stroke-width="10" d="m285.34049,59.13954a262.79658,189.06979 0 0 0 -242.58146,116.35064a262.79658,189.06979 0 0 0 485.16292,0a262.79658,189.06979 0 0 0 -242.58146,-116.35064z" id="svg_2" fill="#000000" stroke="#333333"/>
  <line fill="none" x1="453.55973" y1="49.60537" x2="485.58709" y2="77.80848" id="svg_13" stroke="#7f0000" stroke-width="10"/>
  <line fill="none" x1="482.48767" y1="76.78291" x2="516.58133" y2="76.78292" id="svg_14" stroke="#7f0000" stroke-width="10"/>
  <ellipse fill="none" cx="527.6876" cy="76.21236" id="svg_32" rx="9.96981" ry="9.89673" stroke="#7f0000" stroke-width="10"/>
  <ellipse fill="none" cx="424.5168" cy="285.97183" id="svg_35" rx="9.96981" ry="9.89673" stroke="#7f0000" stroke-width="10"/>
  <line x1="420.55068" y1="276.24229" x2="460.32661" y2="276.24229" id="svg_36" fill="none" stroke="#7f0000" stroke-width="10"/>
  <path fill="none" opacity="undefined" d="m507.40316,228.17081l-63.9264,47.82837" id="svg_38" stroke="#7f0000" stroke-width="10"/>
  <path fill="none" opacity="undefined" d="m520.31742,229.19637l-62.74453,47.8375" id="svg_39" stroke="#7f0000" stroke-width="10"/>
  <line x1="504.18363" y1="229.17897" x2="554.29099" y2="229.17897" id="svg_40" fill="none" stroke="#7f0000" stroke-width="10"/>
  <line x1="486.10367" y1="256.24373" x2="536.21102" y2="256.24373" id="svg_41" fill="none" stroke="#7f0000" stroke-width="10"/>
  <ellipse fill="none" cx="546.149" cy="254.97684" id="svg_42" rx="9.96981" ry="9.89673" stroke="#7f0000" stroke-width="10"/>
  <ellipse fill="none" cx="564.74553" cy="228.31208" id="svg_43" rx="9.96981" ry="9.89673" stroke="#7f0000" stroke-width="10"/>
  <line fill="none" stroke-width="20" x1="16.54114" y1="198.17095" x2="16.54114" y2="152.53319" id="svg_50" stroke="#ffffff"/>
  <line fill="none" x1="392.76051" y1="131.2783" x2="353.65689" y2="163.01962" id="svg_54" stroke-width="20" stroke="#7f0000"/>
  <line fill="none" x1="294.97261" y1="235.73237" x2="316.15199" y2="254.19259" id="svg_58" stroke="#7f0000" stroke-width="10"/>
  <line fill="none" x1="268.11095" y1="232.94932" x2="311.50285" y2="270.89534" id="svg_61" stroke="#7f0000" stroke-width="10"/>
  <line x1="380.20674" y1="49.59185" x2="503.15051" y2="49.59184" id="svg_6" fill="none" stroke="#ffffff" stroke-width="10"/>
  <ellipse fill="none" cx="511.67392" cy="49.48567" id="svg_52" rx="9.96981" ry="9.89673" stroke="#ffffff" stroke-width="10"/>
  <path fill="none" stroke-width="20" opacity="undefined" d="m386.92214,133.43876l25.31197,0" id="svg_55" stroke="#7f0000"/>
  <line fill="none" x1="413.26724" y1="123.30451" x2="413.26724" y2="156.12268" id="svg_57" stroke="#7f0000" stroke-width="10"/>
  <line fill="none" x1="313.05256" y1="253.97346" x2="352.8285" y2="253.97347" id="svg_59" stroke="#7f0000" stroke-width="10"/>
  <ellipse fill="none" cx="358.25249" cy="252.84173" id="svg_60" rx="9.96981" ry="9.89673" stroke="#7f0000" stroke-width="10"/>
  <path fill="none" opacity="undefined" d="m307.88687,269.86976l32.02737,0.00001" id="svg_62" stroke="#7f0000" stroke-width="10"/>
  <line x1="224.23866" y1="143.94405" x2="154.44457" y2="145.52387" id="svg_63" fill="none" stroke="#7f0000" stroke-width="10"/>
  <line x1="230.86302" y1="128.56055" x2="172.74133" y2="128.94911" id="svg_64" fill="none" stroke-width="10" stroke="#7f0000"/>
  <ellipse fill="none" cx="147.49177" cy="144.81579" id="svg_65" rx="9.96981" ry="9.89673" stroke="#7f0000" stroke-width="10"/>
  <line fill="none" x1="381.91254" y1="110.25416" x2="356.23975" y2="133.27816" id="svg_66" stroke="#7f0000" stroke-width="10"/>
  <line fill="none" x1="366.96911" y1="98.60924" x2="335.09747" y2="124.70994" id="svg_67" stroke="#7f0000" stroke-width="10"/>
  <ellipse fill="none" cx="372.75358" cy="92.4895" id="svg_68" rx="9.96981" ry="9.89673" stroke="#7f0000" stroke-width="10"/>
  <line stroke="#7f0000" x1="424.3724" y1="69.29268" x2="449.68437" y2="69.29268" id="svg_29" fill="none" stroke-width="10"/>
  <path fill="none" opacity="undefined" d="m446.15482,68.05206l33.06051,30.76703" id="svg_30" stroke="#7f0000" stroke-width="10"/>
  <line fill="none" x1="475.81439" y1="97.36341" x2="548.13425" y2="97.36342" id="svg_31" stroke="#7f0000" stroke-width="10"/>
  <ellipse ry="75" rx="75" id="svg_86" cy="175" cx="290" stroke-width="10" stroke="#7f0000" fill="#000000"/>
  <g id="svg_76">
   <line x1="249.64516" y1="157.1871" x2="249.64516" id="svg_74" y2="194.1871" stroke-width="10" stroke="#ff0000" fill="none"/>
   <line y1="157.1871" id="svg_75" y2="194.1871" x2="329.64516" x1="329.64516" stroke-width="10" stroke="#ff0000" fill="none"/>
  </g>
  <g transform="rotate(45 289.645 175.687)" id="svg_79">
   <line x1="249.64516" y1="157.1871" x2="249.64516" id="svg_77" y2="194.1871" stroke-width="10" stroke="#ff0000" fill="none"/>
   <line y1="157.1871" id="svg_78" y2="194.1871" x2="329.64516" x1="329.64516" stroke-width="10" stroke="#ff0000" fill="none"/>
  </g>
  <g transform="rotate(90 289.645 175.687)" id="svg_82">
   <line x1="249.64516" y1="157.1871" x2="249.64516" id="svg_80" y2="194.1871" stroke-width="10" stroke="#ff0000" fill="none"/>
   <line y1="157.1871" id="svg_81" y2="194.1871" x2="329.64516" x1="329.64516" stroke-width="10" stroke="#ff0000" fill="none"/>
  </g>
  <g transform="rotate(-45 289.645 175.687)" id="svg_85">
   <line x1="249.64516" y1="157.1871" x2="249.64516" id="svg_83" y2="194.1871" stroke-width="10" stroke="#ff0000" fill="none"/>
   <line y1="157.1871" id="svg_84" y2="194.1871" x2="329.64516" x1="329.64516" stroke-width="10" stroke="#ff0000" fill="none"/>
  </g>
 </g>
</svg>